<svg width="347" height="48" viewBox="0 0 347 48" fill="none" xmlns="http://www.w3.org/2000/svg">
<path d="M177.329 19.0673V13.9966C177.329 11.8754 178.172 9.84103 179.672 8.34111C181.172 6.84118 183.206 5.99854 185.327 5.99854H188.326C188.592 5.99854 188.846 6.10387 189.033 6.29136C189.221 6.47885 189.326 6.73314 189.326 6.99829V9.99756C189.326 12.1188 188.484 14.1531 186.984 15.653C185.484 17.153 183.449 17.9956 181.328 17.9956C179.207 17.9956 177.173 18.8383 175.673 20.3382C174.173 21.8381 173.33 23.8724 173.33 25.9937C173.33 29.9927 175.33 31.9922 175.33 35.9912C175.33 38.1544 174.628 40.2592 173.33 41.9897" stroke="#00A63E" stroke-width="3.99902" stroke-linecap="round" stroke-linejoin="round"/>
<path d="M157.334 17.9956C158.819 16.8816 160.586 16.2032 162.435 16.0365C164.284 15.8698 166.143 16.2212 167.804 17.0516C169.464 17.8819 170.861 19.1583 171.837 20.7376C172.813 22.317 173.33 24.137 173.33 25.9937C171.845 27.1077 170.079 27.786 168.229 27.9528C166.38 28.1195 164.521 27.768 162.86 26.9377C161.2 26.1074 159.803 24.831 158.827 23.2516C157.851 21.6723 157.334 19.8523 157.334 17.9956Z" stroke="#00A63E" stroke-width="3.99902" stroke-linecap="round" stroke-linejoin="round"/>
<path d="M159.333 41.9897H187.327" stroke="#00A63E" stroke-width="3.99902" stroke-linecap="round" stroke-linejoin="round"/>
</svg>
