<svg width="347" height="48" viewBox="0 0 347 48" fill="none" xmlns="http://www.w3.org/2000/svg">
<path d="M171.331 39.9902C167.819 40.0009 164.433 38.6916 161.842 36.322C159.251 33.9524 157.645 30.6956 157.343 27.1976C157.041 23.6995 158.065 20.2158 160.212 17.4372C162.358 14.6587 165.47 12.7883 168.931 12.197C180.328 9.99756 183.328 8.95781 187.327 3.99902C189.326 7.99805 191.326 12.357 191.326 19.9951C191.326 30.9924 181.768 39.9902 171.331 39.9902Z" stroke="#009689" stroke-width="3.99902" stroke-linecap="round" stroke-linejoin="round"/>
<path d="M153.335 41.9897C153.335 35.9912 157.034 31.2724 163.492 29.9927C168.331 29.0329 173.33 25.9937 175.33 23.9941" stroke="#009689" stroke-width="3.99902" stroke-linecap="round" stroke-linejoin="round"/>
</svg>
